# xmcd
#
# Track frame offsets: 
#        150
#        15148
#        25579
#        37858
#        50385
#        60868
#        70704
#        80185
#        89434
#        100247
#        110219
#        121636
#        130935
#        141095
#        149495
#        161064
#        173300
#        183140
#        193032
#        202935
#        212254
#        223182
#        232831
#        242120
#        253073
#        264595
#
# Disc length: 3685 seconds
#
# Revision: 0
# Processed by: cddbd v1.5.2PL0 Copyright (c) Steve Scherf et al.
# Submitted via: ExactAudioCopyFreeDBPlugin 1.0
#
DISCID=5a0e631a
DTITLE=George Jones - Salutes Hank Williams and The Crown Prince Of Coun
DTITLE=try Music and Singles
DYEAR=1900
DGENRE=Country
TTITLE0=Cold Cold Heart
TTITLE1=Hey Good Lookin'
TTITLE2=Howlin' At The Moon
TTITLE3=There'll Be No Teardrops Tonight
TTITLE4=Half As Much
TTITLE5=Jambalaya (On The Bayou)
TTITLE6=Why Don't You Love Me (Like You Used To Do)
TTITLE7=Honky Tonkin'
TTITLE8=I Can't Help It (If I'm Still In Love With You)
TTITLE9=Settin' The Woods On Fire
TTITLE10=One Is A Lonely Number
TTITLE11=Maybe Little Baby
TTITLE12=Run Boy
TTITLE13=I'm A One Woman Man
TTITLE14=Settle Down
TTITLE15=Heartbroken Me
TTITLE16=Rain Rain
TTITLE17=Frozen Heart
TTITLE18=I've Got Five Dollars And It's Saturday Night
TTITLE19=Cause I Love You
TTITLE20=You're In My Heart
TTITLE21=You All Goodnight
TTITLE22=Big Harlan Taylor
TTITLE23=Accidentally On Purpose
TTITLE24=Sparkling Brown Eyes
TTITLE25=Out Of Control
EXTD=
EXTT0=
EXTT1=
EXTT2=
EXTT3=
EXTT4=
EXTT5=
EXTT6=
EXTT7=
EXTT8=
EXTT9=
EXTT10=
EXTT11=
EXTT12=
EXTT13=
EXTT14=
EXTT15=
EXTT16=
EXTT17=
EXTT18=
EXTT19=
EXTT20=
EXTT21=
EXTT22=
EXTT23=
EXTT24=
EXTT25=
PLAYORDER=
